<mxfile host="app.diagrams.net" modified="2021-10-15T03:51:01.326Z" agent="5.0 (X11)" etag="ImHRahrW7DQH9ogu7wYZ" version="15.5.2" type="github">
  <diagram name="Page-1" id="e56a1550-8fbb-45ad-956c-1786394a9013">
    <mxGraphModel dx="1030" dy="613" grid="1" gridSize="10" guides="1" tooltips="1" connect="1" arrows="1" fold="1" page="1" pageScale="1" pageWidth="1100" pageHeight="850" background="none" math="0" shadow="0">
      <root>
        <mxCell id="0" />
        <mxCell id="1" parent="0" />
        <mxCell id="VeBMGfJZqR0LU_ycRjuV-1" value="User&lt;br&gt;" style="shape=umlActor;verticalLabelPosition=bottom;verticalAlign=top;html=1;outlineConnect=0;" parent="1" vertex="1">
          <mxGeometry x="160" y="425" width="30" height="60" as="geometry" />
        </mxCell>
        <mxCell id="VeBMGfJZqR0LU_ycRjuV-3" value="S" style="swimlane;swimlaneFillColor=#ffffff;" parent="1" vertex="1">
          <mxGeometry x="250" y="43" width="580" height="765" as="geometry" />
        </mxCell>
        <mxCell id="VeBMGfJZqR0LU_ycRjuV-4" value="Registration" style="ellipse;whiteSpace=wrap;html=1;" parent="VeBMGfJZqR0LU_ycRjuV-3" vertex="1">
          <mxGeometry x="60" y="55" width="120" height="80" as="geometry" />
        </mxCell>
        <mxCell id="VeBMGfJZqR0LU_ycRjuV-5" value="View Items" style="ellipse;whiteSpace=wrap;html=1;" parent="VeBMGfJZqR0LU_ycRjuV-3" vertex="1">
          <mxGeometry x="60" y="325" width="120" height="80" as="geometry" />
        </mxCell>
        <mxCell id="VeBMGfJZqR0LU_ycRjuV-6" value="Login" style="ellipse;whiteSpace=wrap;html=1;" parent="VeBMGfJZqR0LU_ycRjuV-3" vertex="1">
          <mxGeometry x="60" y="210" width="120" height="80" as="geometry" />
        </mxCell>
        <mxCell id="VeBMGfJZqR0LU_ycRjuV-8" value="" style="endArrow=open;html=1;dashed=1;endFill=0;" parent="VeBMGfJZqR0LU_ycRjuV-3" edge="1">
          <mxGeometry width="50" height="50" relative="1" as="geometry">
            <mxPoint x="120" y="140" as="sourcePoint" />
            <mxPoint x="120" y="210" as="targetPoint" />
          </mxGeometry>
        </mxCell>
        <mxCell id="VeBMGfJZqR0LU_ycRjuV-10" value="&amp;lt;&amp;lt;extend&amp;gt;&amp;gt;" style="edgeLabel;html=1;align=center;verticalAlign=middle;resizable=0;points=[];" parent="VeBMGfJZqR0LU_ycRjuV-8" vertex="1" connectable="0">
          <mxGeometry x="-0.4571" y="4" relative="1" as="geometry">
            <mxPoint as="offset" />
          </mxGeometry>
        </mxCell>
        <mxCell id="VeBMGfJZqR0LU_ycRjuV-11" value="" style="endArrow=open;html=1;dashed=1;exitX=0.933;exitY=0.2;exitDx=0;exitDy=0;exitPerimeter=0;endFill=0;" parent="VeBMGfJZqR0LU_ycRjuV-3" source="VeBMGfJZqR0LU_ycRjuV-6" edge="1">
          <mxGeometry width="50" height="50" relative="1" as="geometry">
            <mxPoint x="200" y="220" as="sourcePoint" />
            <mxPoint x="260" y="170" as="targetPoint" />
          </mxGeometry>
        </mxCell>
        <mxCell id="VeBMGfJZqR0LU_ycRjuV-12" value="&amp;lt;&amp;lt;include&amp;gt;&amp;gt;" style="edgeLabel;html=1;align=center;verticalAlign=middle;resizable=0;points=[];" parent="VeBMGfJZqR0LU_ycRjuV-11" vertex="1" connectable="0">
          <mxGeometry x="-0.2863" y="-1" relative="1" as="geometry">
            <mxPoint as="offset" />
          </mxGeometry>
        </mxCell>
        <mxCell id="VeBMGfJZqR0LU_ycRjuV-16" value="Verify Password" style="ellipse;whiteSpace=wrap;html=1;" parent="VeBMGfJZqR0LU_ycRjuV-3" vertex="1">
          <mxGeometry x="245" y="110" width="110" height="70" as="geometry" />
        </mxCell>
        <mxCell id="VeBMGfJZqR0LU_ycRjuV-17" value="Display Password" style="ellipse;whiteSpace=wrap;html=1;" parent="VeBMGfJZqR0LU_ycRjuV-3" vertex="1">
          <mxGeometry x="290" y="240" width="100" height="65" as="geometry" />
        </mxCell>
        <mxCell id="VeBMGfJZqR0LU_ycRjuV-18" value="" style="endArrow=open;html=1;exitX=0;exitY=0.5;exitDx=0;exitDy=0;dashed=1;endFill=0;" parent="VeBMGfJZqR0LU_ycRjuV-3" source="VeBMGfJZqR0LU_ycRjuV-17" edge="1">
          <mxGeometry width="50" height="50" relative="1" as="geometry">
            <mxPoint x="210" y="320" as="sourcePoint" />
            <mxPoint x="180" y="260" as="targetPoint" />
          </mxGeometry>
        </mxCell>
        <mxCell id="VeBMGfJZqR0LU_ycRjuV-19" value="&amp;lt;&amp;lt;extend&amp;gt;&amp;gt;" style="edgeLabel;html=1;align=center;verticalAlign=middle;resizable=0;points=[];" parent="VeBMGfJZqR0LU_ycRjuV-18" vertex="1" connectable="0">
          <mxGeometry x="-0.0954" y="2" relative="1" as="geometry">
            <mxPoint x="-10" y="-4" as="offset" />
          </mxGeometry>
        </mxCell>
        <mxCell id="M9rh3NLGqwEBXDdIl5e4-3" value="Add to Cart" style="ellipse;whiteSpace=wrap;html=1;" parent="VeBMGfJZqR0LU_ycRjuV-3" vertex="1">
          <mxGeometry x="60" y="430" width="120" height="80" as="geometry" />
        </mxCell>
        <mxCell id="xlK_UCdPmd1VBnwlEskY-1" value="checkout" style="ellipse;whiteSpace=wrap;html=1;" vertex="1" parent="VeBMGfJZqR0LU_ycRjuV-3">
          <mxGeometry x="245" y="382" width="80" height="66" as="geometry" />
        </mxCell>
        <mxCell id="xlK_UCdPmd1VBnwlEskY-2" value="Add to Favotire" style="ellipse;whiteSpace=wrap;html=1;" vertex="1" parent="VeBMGfJZqR0LU_ycRjuV-3">
          <mxGeometry x="40" y="550" width="100" height="80" as="geometry" />
        </mxCell>
        <mxCell id="xlK_UCdPmd1VBnwlEskY-3" value="Search" style="ellipse;whiteSpace=wrap;html=1;" vertex="1" parent="VeBMGfJZqR0LU_ycRjuV-3">
          <mxGeometry x="40" y="660" width="100" height="80" as="geometry" />
        </mxCell>
        <mxCell id="xlK_UCdPmd1VBnwlEskY-6" value="extends" style="endArrow=open;endSize=12;dashed=1;html=1;rounded=0;entryX=0.5;entryY=1;entryDx=0;entryDy=0;" edge="1" parent="VeBMGfJZqR0LU_ycRjuV-3" target="M9rh3NLGqwEBXDdIl5e4-3">
          <mxGeometry width="160" relative="1" as="geometry">
            <mxPoint x="120" y="550" as="sourcePoint" />
            <mxPoint x="120" y="520" as="targetPoint" />
          </mxGeometry>
        </mxCell>
        <mxCell id="xlK_UCdPmd1VBnwlEskY-7" value="extends" style="endArrow=open;endSize=12;dashed=1;html=1;rounded=0;" edge="1" parent="VeBMGfJZqR0LU_ycRjuV-3">
          <mxGeometry width="160" relative="1" as="geometry">
            <mxPoint x="170" y="450" as="sourcePoint" />
            <mxPoint x="250" y="437" as="targetPoint" />
          </mxGeometry>
        </mxCell>
        <mxCell id="mMMHVlKEbvwnTu2sbnn0-1" value="Admin" style="shape=umlActor;verticalLabelPosition=bottom;verticalAlign=top;html=1;outlineConnect=0;" parent="1" vertex="1">
          <mxGeometry x="859" y="425" width="30" height="60" as="geometry" />
        </mxCell>
        <mxCell id="M9rh3NLGqwEBXDdIl5e4-4" value="" style="endArrow=none;html=1;entryX=-0.008;entryY=0.588;entryDx=0;entryDy=0;entryPerimeter=0;" parent="1" target="VeBMGfJZqR0LU_ycRjuV-4" edge="1">
          <mxGeometry width="50" height="50" relative="1" as="geometry">
            <mxPoint x="200" y="460" as="sourcePoint" />
            <mxPoint x="250" y="410" as="targetPoint" />
          </mxGeometry>
        </mxCell>
        <mxCell id="M9rh3NLGqwEBXDdIl5e4-5" value="" style="endArrow=none;html=1;entryX=0.017;entryY=0.613;entryDx=0;entryDy=0;entryPerimeter=0;" parent="1" target="M9rh3NLGqwEBXDdIl5e4-3" edge="1">
          <mxGeometry width="50" height="50" relative="1" as="geometry">
            <mxPoint x="200" y="460" as="sourcePoint" />
            <mxPoint x="320" y="642" as="targetPoint" />
          </mxGeometry>
        </mxCell>
        <mxCell id="M9rh3NLGqwEBXDdIl5e4-6" value="" style="endArrow=none;html=1;entryX=0.017;entryY=0.325;entryDx=0;entryDy=0;entryPerimeter=0;" parent="1" target="VeBMGfJZqR0LU_ycRjuV-6" edge="1">
          <mxGeometry width="50" height="50" relative="1" as="geometry">
            <mxPoint x="200" y="460" as="sourcePoint" />
            <mxPoint x="250" y="410" as="targetPoint" />
          </mxGeometry>
        </mxCell>
        <mxCell id="M9rh3NLGqwEBXDdIl5e4-7" value="" style="endArrow=none;html=1;entryX=0;entryY=0.4;entryDx=0;entryDy=0;entryPerimeter=0;" parent="1" target="VeBMGfJZqR0LU_ycRjuV-5" edge="1">
          <mxGeometry width="50" height="50" relative="1" as="geometry">
            <mxPoint x="200" y="460" as="sourcePoint" />
            <mxPoint x="250" y="410" as="targetPoint" />
          </mxGeometry>
        </mxCell>
        <mxCell id="M9rh3NLGqwEBXDdIl5e4-8" value="" style="endArrow=none;html=1;entryX=0;entryY=0.375;entryDx=0;entryDy=0;entryPerimeter=0;" parent="1" edge="1">
          <mxGeometry width="50" height="50" relative="1" as="geometry">
            <mxPoint x="200" y="460" as="sourcePoint" />
            <mxPoint x="290" y="750" as="targetPoint" />
          </mxGeometry>
        </mxCell>
        <mxCell id="M9rh3NLGqwEBXDdIl5e4-10" value="" style="endArrow=none;html=1;" parent="1" edge="1">
          <mxGeometry width="50" height="50" relative="1" as="geometry">
            <mxPoint x="290" y="630" as="sourcePoint" />
            <mxPoint x="200" y="460" as="targetPoint" />
          </mxGeometry>
        </mxCell>
      </root>
    </mxGraphModel>
  </diagram>
</mxfile>
